# xmcd CD database file
#
# Track frame offsets:
#	182
#	15770
#	29567
#	41097
#	55007
#	71100
#	87747
#	99212
#	109907
#	124642
#	141602
#	153857
#	165342
#	180822
#
# Disc length: 2628 seconds
#
# Revision: 12
# Processed by: cddbd v1.5.2PL0 Copyright (c) Steve Scherf et al.
# Submitted via: CDex 1.70beta2
#
DISCID=ae0a420e
DTITLE=Die Flippers - DIE ROTE SONNE VON BARBADOS
DYEAR=1986
DGENRE=Schlager
TTITLE0=Die rote Sonne von Barbados
TTITLE1=Am Ende bleiben nur noch Träume
TTITLE2=Alles Liebe, alles Gute
TTITLE3=Aber Dich gibt's nur einmal für mich
TTITLE4=Ein kleines Lied vom Sonnenschein
TTITLE5=Ich geh' mit Dir bis zum Regenbogen
TTITLE6=Träume der Erinnerung
TTITLE7=Santa Maria
TTITLE8=Arrivederci, Ciao, Amor
TTITLE9=Komm' auf meine Insel
TTITLE10=Weine nicht, kleine Eva
TTITLE11=Julia
TTITLE12=Rosemarie
TTITLE13=Kinder des Sommers
EXTD=YEAR: 1986
EXTT0=
EXTT1=
EXTT2=
EXTT3=
EXTT4=
EXTT5=
EXTT6=
EXTT7=
EXTT8=
EXTT9=
EXTT10=
EXTT11=
EXTT12=
EXTT13=
PLAYORDER=
